<?xml version="1.0" encoding="UTF-8"?>
<svg width="215px" height="215px" viewBox="0 0 215 215" version="1.1" xmlns="http://www.w3.org/2000/svg" xmlns:xlink="http://www.w3.org/1999/xlink">
    <title>app-logo</title>
    <g id="Page-1" stroke="none" stroke-width="1" fill="none" fill-rule="evenodd">
        <path d="M213.115814,88.4434899 C214.352763,95.0497365 215,101.867277 215,108.83787 C215,160.668092 179.215881,204.03647 131.296331,215 C131.066281,207.620729 130.683609,194.59523 130.384659,180.944732 L130.356646,179.652138 L130.34284,179.004738 L130.302492,177.069232 L130.233944,173.604702 C130.065248,164.757988 129.94903,156.024226 129.94903,148.751812 C129.94903,145.181536 129.644828,141.129689 129.19461,137.088039 L129.088194,136.155755 C129.024468,135.610396 128.9583,135.065914 128.890079,134.52352 L128.786258,133.711647 C127.452922,123.4516 125.449008,114.164324 125.449008,114.164324 C125.449008,114.164324 170.194735,101.036322 211.360803,88.9585603 Z M1.74877639,89.1831773 C37.0250672,98.074199 84.815685,110.119326 84.815685,110.119326 C84.815685,110.119326 82.519352,144.579385 77.926686,213.499502 C32.9359998,200.499184 0,158.562703 0,108.83787 C0,102.225825 0.582365612,95.7514921 1.69799868,89.4645799 Z M94.6824031,118.439227 C97.405848,118.439227 99.6136363,121.375882 99.6136363,124.998431 C99.6136363,128.620979 97.405848,131.557634 94.6824031,131.557634 C91.9589581,131.557634 89.7511698,128.620979 89.7511698,124.998431 C89.7511698,121.375882 91.9589581,118.439227 94.6824031,118.439227 Z M115.503166,118.439227 C118.226611,118.439227 120.434399,121.375882 120.434399,124.998431 C120.434399,128.620979 118.226611,131.557634 115.503166,131.557634 C112.779721,131.557634 110.571932,128.620979 110.571932,124.998431 C110.571932,121.375882 112.779721,118.439227 115.503166,118.439227 Z M107.5,0 C154.134227,0 193.832919,30.0641176 208.719393,72.0931908 C168.302411,73.7942356 125.449008,75.5962015 125.449008,75.5962015 C125.449008,75.5962015 129.526353,66.1552182 128.814388,55.418418 C128.117733,44.9125167 116.022122,32.3047466 115.502203,31.7673357 L115.484941,31.7495436 C115.484941,31.7495436 114.488667,76.2432215 97.5280097,76.2432215 C80.5673521,76.2432215 77.4120361,32.9731831 77.4120361,32.9731831 C77.4120361,32.9731831 68.818394,43.9451902 67.6787049,55.418418 C66.5390158,66.8916458 71.8917279,75.5962015 71.8917279,75.5962015 C71.8917279,75.5962015 50.1975895,76.4597395 26.3340373,77.4096314 L24.7401341,77.4730769 C23.675675,77.5154478 22.6077878,77.5579552 21.5381864,77.6005308 L19.1294139,77.6964123 L18.3259541,77.7283942 L15.1137217,77.8562575 C11.4652213,78.0014865 7.83666524,78.1459217 4.2960859,78.2868549 C17.3359155,33.0484181 58.6059633,0 107.5,0 Z" id="app-logo" fill="#266867"></path>
    </g>
</svg>