<?xml version="1.0" encoding="UTF-8"?>
<svg width="1298.04251px" height="810.000008px" viewBox="0 0 1298.04251 810.000008" version="1.1" xmlns="http://www.w3.org/2000/svg" xmlns:xlink="http://www.w3.org/1999/xlink">
    <title>oc-error</title>
    <g id="Page-1" stroke="none" stroke-width="1" fill="none" fill-rule="evenodd">
        <g id="oc-error" transform="translate(2.4928, 0)">
            <path d="M1082.84121,629.999982 L1026.31121,609.330982 C1025.52121,609.041982 1025.00121,608.291982 1025.00121,607.451982 L1025.00121,553.254982 C1025.00121,551.951982 1026.22121,550.996982 1027.49121,551.314982 L1027.63121,551.350982 M1082.84121,629.999982 L1082.84121,572.499982 M1082.84121,629.999982 L1118.49121,590.253982 C1118.82121,589.886982 1119.00121,589.410982 1119.00121,588.917982 L1119.00121,537.470982 M1082.84121,572.499982 L1027.63121,551.350982 M1082.84121,572.499982 L1119.00121,537.470982 M1027.63121,551.350982 L1062.84121,515.943982 C1063.41121,515.371982 1064.27121,515.197982 1065.02121,515.501982 L1119.00121,537.470982" id="Shape" stroke="#266867" stroke-width="5" stroke-linecap="round"></path>
            <path d="M1188.00121,585.157982 L1188.00121,631.507982 C1188.00121,631.989982 1188.17121,632.455982 1188.49121,632.819982 L1214.72121,662.999982 M1188.00121,585.157982 L1214.72121,611.322982 M1188.00121,585.157982 L1235.13121,576.209982 C1235.81121,576.079982 1236.52121,576.316982 1236.98121,576.835982 L1261.00121,603.473982 M1214.72121,662.999982 L1214.72121,611.322982 M1214.72121,662.999982 L1259.37121,654.466982 C1260.32121,654.286982 1261.00121,653.462982 1261.00121,652.502982 L1261.00121,603.473982 M1214.72121,611.322982 L1261.00121,603.473982" id="Shape" stroke="#266867" stroke-width="5" stroke-linecap="round"></path>
            <path d="M1195.00121,485.590982 L1195.00121,526.977982 L1233.17121,547.999982 M1195.00121,485.590982 L1233.17121,506.612982 M1195.00121,485.590982 L1233.17121,457.999982 L1272.00121,479.678982 M1233.17121,547.999982 L1233.17121,506.612982 M1233.17121,547.999982 L1272.00121,521.722982 L1272.00121,479.678982 M1233.17121,506.612982 L1272.00121,479.678982" id="Shape" stroke="#266867" stroke-width="5"></path>
            <path d="M1233.50121,459.999982 L1233.50121,486.428982 M1233.50121,486.428982 L1218.00121,496.999982 M1233.50121,486.428982 L1249.00121,495.017982" id="Shape" stroke="#266867" stroke-width="5" stroke-linecap="round"></path>
            <polygon id="Path" stroke="#266867" stroke-width="5" points="1253.76121 424.999982 1232.00121 458.392982 1270.24121 479.999982 1292.00121 446.606982"></polygon>
            <line x1="1195.00121" y1="419.999982" x2="1203.00121" y2="437.999982" id="Path" stroke="#266867" stroke-width="5" stroke-linecap="round"></line>
            <line x1="1167.00121" y1="429.999982" x2="1193.00121" y2="451.999982" id="Path" stroke="#266867" stroke-width="5" stroke-linecap="round"></line>
            <line x1="1166.00121" y1="458.999982" x2="1182.00121" y2="467.999982" id="Path" stroke="#266867" stroke-width="5" stroke-linecap="round"></line>
            <path d="M276.417212,147.716982 C273.790212,102.977982 251.236212,82.5823818 240.288212,77.9768818 C275.497212,91.4767818 305.758212,74.8293818 316.488212,64.8182818 L323.057212,83.8981818 C345.654212,82.8454818 346.486212,51.8790818 344.077212,36.5273818 C340.361212,12.8419818 309.787212,-12.5540182 259.338212,6.92062184 C208.889212,26.3952818 186.642212,73.8099818 181.825212,95.0829818 C142.937212,90.3458818 106.939212,124.250982 93.8011119,141.795982 C80.2253119,159.998982 59.5113119,209.693982 85.2615119,262.854982 C117.449212,329.304982 211.785212,293.047982 224.523212,283.907982 C268.534212,252.327982 279.702212,203.640982 276.417212,147.716982 Z" id="Path" fill="#266867" fill-rule="nonzero"></path>
            <path d="M346.500212,128.999982 C346.500212,136.642982 344.679212,143.439982 341.864212,148.241982 C339.014212,153.102982 335.442212,155.499982 332.000212,155.499982 C328.558212,155.499982 324.985212,153.102982 322.136212,148.241982 C319.321212,143.439982 317.500212,136.642982 317.500212,128.999982 C317.500212,121.356982 319.321212,114.559982 322.136212,109.757982 C324.985212,104.896982 328.558212,102.499982 332.000212,102.499982 C335.442212,102.499982 339.014212,104.896982 341.864212,109.757982 C344.679212,114.559982 346.500212,121.356982 346.500212,128.999982 Z" id="Path" stroke="#266867" stroke-width="5"></path>
            <ellipse id="Oval" fill="#266867" fill-rule="nonzero" cx="333.500212" cy="129.499982" rx="2.5" ry="4.5"></ellipse>
            <line x1="276.000212" y1="143.999982" x2="318.000212" y2="133.999982" id="Path" stroke="#266867" stroke-width="5" stroke-linecap="round"></line>
            <path d="M327.421212,83.9999818 C331.998212,90.5748818 344.697212,104.542982 356.843212,111.614982 C369.266212,118.846982 371.881212,130.023982 365.997212,139.228982 L356.843212,153.693982 C363.381212,163.775982 373.712212,189.066982 362.727212,209.580982 M317.613212,293.082982 C316.742212,284.972982 320.098212,265.730982 340.497212,253.632982 M247.000212,298.999982 L247.000212,265.467982" id="Shape" stroke="#266867" stroke-width="5" stroke-linecap="round"></path>
            <circle id="Oval" fill="#266867" fill-rule="nonzero" cx="299.500212" cy="181.499982" r="2.5"></circle>
            <ellipse id="Oval" fill="#266867" fill-rule="nonzero" cx="294.000212" cy="205.499982" rx="3" ry="2.5"></ellipse>
            <path d="M324.000212,216.999982 C325.522212,220.682982 330.652212,228.439982 339.000212,229.999982" id="Path" stroke="#266867" stroke-width="5" stroke-linecap="round"></path>
            <ellipse id="Oval" fill="#266867" fill-rule="nonzero" cx="315.000212" cy="198.499982" rx="3" ry="2.5"></ellipse>
            <path d="M366.952212,281.722982 L376.133212,279.094982 C379.850212,277.561982 386.888212,276.991982 385.315212,286.979982 C383.741212,296.967982 355.979212,298.149982 354.492212,286.979982 C353.948212,282.889982 354.059212,276.965982 355.837212,271.209982 M376.133212,253.467982 C364.164212,255.312982 358.344212,263.094982 355.837212,271.209982 M355.837212,271.209982 C350.525212,268.931982 344.114212,263.367982 347.852212,255.439982 M359.738212,243.611982 C353.143212,247.963982 349.505212,251.932982 347.852212,255.439982 M347.852212,255.439982 C341.977212,252.153982 336.655212,242.034982 362.361212,227.841982 M378.100212,229.812982 C368.264212,229.155982 347.672212,225.475982 343.999212,216.013982 C340.327212,206.551982 352.088212,205.500982 358.427212,206.157982 C366.515212,207.471982 386.363212,213.648982 401.053212,227.841982 C419.415212,245.582982 460.730212,291.579982 480.403212,332.975982 C496.142212,366.093982 522.811212,409.855982 534.178212,427.596982 C556.693212,462.641982 592.543212,535.359982 498.110212,537.988982 C473.846212,538.663982 438.433212,509.338982 401.709212,486.734982" id="Shape" stroke="#266867" stroke-width="5" stroke-linecap="round"></path>
            <path d="M146.981212,651.232982 C147.418212,668.231982 140.297212,703.422982 108.319212,708.190982 C76.3410119,712.959982 36.4556119,713.268982 20.5102119,712.827982 C10.2439119,713.710982 -7.5362981,711.634982 3.4726019,696.269982 C14.4815119,680.903982 32.0868119,678.387982 39.5133119,679.049982 C59.3905119,680.374982 99.0142119,673.618982 98.4892119,635.999982" id="Path" stroke="#266867" stroke-width="5" stroke-linecap="round"></path>
            <path d="M763.000212,658.999975 C769.807212,657.902982 787.243212,650.308982 794.622212,633.980982 C803.845212,613.569982 822.950212,605.010982 829.538212,612.910982 C834.808212,619.231982 832.612212,623.445982 832.173212,624.762982" id="Path" stroke="#266867" stroke-width="5" stroke-linecap="round"></path>
            <path d="M580.191212,645.182982 C502.256212,639.952982 470.924212,615.548982 465.000212,603.999982 C477.506212,722.318982 794.118212,694.862982 786.878212,681.135982 C781.085212,670.153982 772.616212,662.614982 769.105212,660.217982 C715.130212,626.225982 677.610212,651.719982 580.191212,645.182982 Z" id="Path" fill="#266867" fill-rule="nonzero"></path>
            <path d="M309.763212,793.787982 C216.855212,779.154982 186.377212,724.685982 190.336212,698.264982 C212.771212,763.978982 359.260212,771.431982 420.619212,724.685982 C465.807212,690.259982 467.029212,623.065982 464.170212,597.999982 C476.047212,634.582982 501.950212,643.452982 538.734212,660.326982 C569.748212,674.553982 692.261212,672.069982 751.869212,667.101982 C781.562212,664.626982 809.096212,686.164982 791.460212,745.009982 C765.066212,833.080982 425.898212,812.079982 309.763212,793.787982 Z" id="Path" fill="#266867" fill-rule="nonzero"></path>
            <path d="M385.645212,280.999982 C391.776212,294.137982 404.170212,329.346982 404.695212,365.080982 L358.713212,309.245982 C350.611212,300.049982 328.627212,284.415982 305.504212,295.450982 L243.099212,302.019982 C194.051212,374.714982 94.6412119,529.958982 89.3860119,569.371982 C84.1309119,608.784982 95.0791119,630.461982 101.210212,636.373982 C112.815212,647.540982 142.726212,663.174982 169.527212,636.373982 C174.855212,631.046982 179.250212,625.993982 182.859212,621.265982 M197.117212,579.881982 C194.489212,591.705982 197.404212,602.210982 182.859212,621.265982 M182.859212,621.265982 C177.101212,659.802982 186.606212,739.373982 270.689212,749.357982 C354.772212,759.342982 406.009212,738.628982 421.118212,727.023982 C438.416212,712.353982 471.699212,666.984982 466.444212,602.872982 L438.197212,512.222982" id="Shape" stroke="#266867" stroke-width="5" stroke-linecap="round"></path>
            <path d="M807.310212,664.181982 C803.644212,684.090982 797.055212,691.032982 792.255212,692.996982 C800.110212,730.325982 785.055212,759.795982 770.000212,766.999982 C780.909212,765.689982 806.786212,760.843982 823.019212,751.937982 C839.253212,743.030982 846.366212,725.959982 847.893212,718.537982 C851.166212,700.418982 857.319212,658.811982 855.748212,637.330982 C854.177212,615.850982 840.256212,620.085982 833.492212,624.888982 C826.292212,629.690982 810.975212,644.272982 807.310212,664.181982 Z" id="Path" stroke="#266867" stroke-width="5"></path>
        </g>
    </g>
</svg>