<?xml version="1.0" encoding="UTF-8"?>
<svg width="2261px" height="1151px" viewBox="0 0 2261 1151" version="1.1" xmlns="http://www.w3.org/2000/svg" xmlns:xlink="http://www.w3.org/1999/xlink">
    <title>background-1</title>
    <defs>
        <rect id="path-1" x="0" y="0" width="2261" height="1151"></rect>
    </defs>
    <g id="Page-1" stroke="none" stroke-width="1" fill="none" fill-rule="evenodd">
        <g id="background-1">
            <mask id="mask-2" fill="white">
                <use xlink:href="#path-1"></use>
            </mask>
            <use id="Mask" fill="#FFFFFF" xlink:href="#path-1"></use>
            <path d="M1981.3098,636.921384 C1986.71559,642.711369 1989.68917,647.218359 1990.23053,650.442354 C1990.77189,653.66635 1990.20987,658.526047 1988.54448,665.021447 C2066.07118,661.836313 2104.83453,660.243746 2104.83453,660.243746 L2104.78613,660.255563 C2103.20495,660.641607 2062.88492,670.485729 1983.82603,689.787929 C2009.05734,856.4964 2020.702,940.872222 2018.75999,942.915396 C2016.83741,944.938137 2008.99366,938.326073 2001.79857,931.237536 L2001.14644,930.592038 C1997.6799,927.144802 1994.41265,923.643675 1992.09349,921.018519 C1987.26191,915.549446 1982.082,906.658438 1976.55375,894.345495 C1980.557,911.095204 1983.72864,923.447441 1986.06866,931.402205 C1992.41763,952.985191 1998.1798,971.432003 2002.21624,981.063884 C2008.48424,996.020748 2016.37374,1005.73593 2025.88474,1010.20942 C2021.34864,1013.59705 2018.00272,1015.29087 2015.84699,1015.29087 C2015.7064,1015.29087 2015.56599,1015.29208 2015.42573,1015.29403 L2014.79542,1015.3063 C2011.92741,1015.37107 2009.09825,1015.46017 2005.99639,1011.61802 C2003.97305,1009.11179 1999.10583,1001.52053 1994.33136,993.530799 L1993.75906,992.570419 C1990.52067,987.120825 1987.37948,981.57366 1985.25888,977.402528 C1978.77214,964.643406 1975.19695,955.082499 1972.59521,947.65146 C1967.8421,934.075697 1965.31177,914.615316 1965.00423,889.270315 C1962.94732,907.382772 1960.64938,919.483412 1958.11043,925.572233 C1954.30201,934.705465 1942.48615,948.095042 1940.13719,946.769665 C1937.78823,945.444288 1935.40851,932.078079 1931.68755,925.572233 C1930.86605,924.135877 1929.91497,922.465878 1928.90881,920.746289 L1928.55152,920.137616 C1928.43174,919.934238 1928.31133,919.730474 1928.19039,919.526622 L1927.82614,918.915107 C1924.536,913.414518 1920.95513,908.069011 1919.47018,908.77759 C1918.26325,909.353507 1916.9833,919.73441 1915.30706,930.791883 L1915.12914,931.957932 C1913.90314,939.937621 1912.46624,948.101642 1910.69815,953.052784 C1906.38572,965.128743 1897.46034,980.201651 1893.33347,979.153669 C1889.2066,978.105686 1847.23242,937.669184 1837.14593,944.216523 C1830.42161,948.581415 1832.37856,968.546868 1843.01678,1004.11288 C1851.0235,1025.07563 1857.46029,1038.60672 1862.32715,1044.70616 C1871.77124,1056.54209 1887.29583,1059.77658 1887.93325,1060.14536 C1893.3229,1063.26363 1895.12298,1065.69561 1893.33347,1067.4413 C1878.0818,1067.74214 1866.28661,1067.89858 1857.9479,1067.91062 L1855.93523,1067.91062 C1848.1726,1067.89858 1843.86645,1067.74214 1843.01678,1067.4413 C1840.36158,1066.50116 1836.50119,1060.57119 1832.52582,1057.34648 C1830.95,1056.06822 1828.75808,1055.03088 1826.59658,1054.02997 L1825.78871,1053.65593 C1823.10898,1052.41218 1820.60308,1051.18541 1819.53375,1049.57622 C1815.34392,1043.2711 1816.03139,1038.78526 1821.59615,1036.11869 C1824.4825,1021.8425 1824.4825,1006.52377 1821.59615,990.162493 C1817.26663,965.620581 1797.14159,934.243114 1799.84296,928.648089 C1802.54434,923.053064 1830.79231,905.036869 1837.97419,905.735742 C1841.34968,906.064212 1848.89194,911.971842 1856.22078,918.241919 L1857.15488,919.043921 C1865.07913,925.870844 1872.53261,932.86315 1873.91887,933.355631 C1876.63704,934.32128 1883.20378,918.699561 1877.52116,906.685997 C1871.83854,894.672433 1861.53703,887.759076 1855.10434,885.059052 C1850.97903,883.327515 1842.41776,886.99698 1834.207,891.571092 L1833.37341,892.0392 C1829.07466,894.472058 1824.91748,897.112584 1821.59615,899.308564 C1771.20267,932.627538 1750.38677,946.769665 1750.38677,946.769665 C1750.38677,946.769665 1857.72829,810.829443 1860.75508,808.495386 C1863.78187,806.161329 1871.46378,806.161329 1875.25829,808.495386 C1877.19349,809.685755 1885.62993,824.374233 1894.12001,839.17156 L1895.1187,840.912117 C1902.93762,854.537761 1910.58736,867.809914 1913.02149,870.249097 C1930.96596,867.821386 1929.27502,848.686021 1940.13719,799.021864 C1943.93125,781.674602 1947.03909,746.811967 1949.46069,694.433959 L1843.01678,663.354656 L1946.97901,663.354656 C1944.72923,656.932615 1943.83935,652.217839 1944.30937,649.210331 C1944.77939,646.202822 1947.04629,642.106507 1951.11007,636.921384 C1953.53786,656.032988 1958.83548,665.399676 1967.00294,665.021447 C1975.1704,664.643218 1979.93935,655.276531 1981.3098,636.921384 Z M1968,761.997105 C1966.89543,761.997105 1966,763.116393 1966,764.497105 C1966,765.877817 1966.89543,766.997105 1968,766.997105 C1969.10457,766.997105 1970,765.877817 1970,764.497105 C1970,763.116393 1969.10457,761.997105 1968,761.997105 Z M1962,738.997105 C1959.23858,738.997105 1957,741.683396 1957,744.997105 C1957,748.310813 1959.23858,750.997105 1962,750.997105 C1964.76142,750.997105 1967,748.310813 1967,744.997105 C1967,741.683396 1964.76142,738.997105 1962,738.997105 Z M1976,738.997105 C1973.23858,738.997105 1971,741.683396 1971,744.997105 C1971,748.310813 1973.23858,750.997105 1976,750.997105 C1978.76142,750.997105 1981,748.310813 1981,744.997105 C1981,741.683396 1978.76142,738.997105 1976,738.997105 Z" id="Combined-Shape" fill="#266867" mask="url(#mask-2)"></path>
            <path d="M1509.55636,171 L1509.63514,171.079721 C1512.19181,173.673695 1576.14538,239.067826 1579.82349,293.545986 C1583.57667,349.135945 1562.08265,398.016792 1562.08265,398.016792 C1562.08265,398.016792 1756.30371,389.995599 1954.40918,381.813982 L1978.67347,380.811884 C2176.77894,372.630268 2371,364.609075 2371,364.609075 C2371,364.609075 2176.77894,420.575137 1978.67347,477.66052 L1954.40918,484.652432 C1756.30371,541.737815 1562.08265,597.703877 1562.08265,597.703877 C1562.08265,597.703877 1585.80484,705.684386 1585.80484,776.781165 C1585.80484,914.085395 1593.95157,1152 1593.95157,1152 L1308.85232,1152 C1334.87156,768.507225 1347.88118,576.760838 1347.88118,576.760838 C1347.88118,576.760838 715,420.095717 715,420.095717 C715,420.095717 850.596863,414.794567 988.905664,409.387394 L1005.84595,408.725114 C1144.15475,403.317941 1279.75162,398.016792 1279.75162,398.016792 C1279.75162,398.016792 1251.53441,352.948811 1257.54237,293.545986 C1263.55032,234.14316 1308.85232,177.335413 1308.85232,177.335413 C1308.85232,177.335413 1325.48579,401.366748 1414.89511,401.366748 C1504.30443,401.366748 1509.55636,171 1509.55636,171 Z M1400.03571,620 C1385.65659,620 1374,635.222319 1374,654 C1374,672.777681 1385.65659,688 1400.03571,688 C1414.41484,688 1426.07143,672.777681 1426.07143,654 C1426.07143,635.222319 1414.41484,620 1400.03571,620 Z M1509.96429,620 C1495.58516,620 1483.92857,635.222319 1483.92857,654 C1483.92857,672.777681 1495.58516,688 1509.96429,688 C1524.34341,688 1536,672.777681 1536,654 C1536,635.222319 1524.34341,620 1509.96429,620 Z" id="Combined-Shape" fill="#266867" mask="url(#mask-2)"></path>
        </g>
    </g>
</svg>